<svg height="131" viewBox="0 0 310 131" width="310" xmlns="http://www.w3.org/2000/svg"><g fill="none" fill-rule="evenodd"><path d="m0 0h310v131h-310z" fill="#004153" fill-rule="nonzero"/><g fill="#ff9c66"><path d="m30 96.0837h14.6028v-61.3317h-14.6028z"/><path d="m129.418 34.752v37.4118l-26.47-37.4118h-6.0947-7.1822-.0667v37.4118l-26.4699-37.4118h-13.2751v61.3317h13.856v-37.4118l26.4699 37.4118h2.3096 7.8391 3.195v-37.4118l26.47 37.4118h13.318v-61.3317z"/><path d="m178.768 33.3252c-18.131 0-30.971 13.4538-30.971 31.7149 0 18.2592 12.84 31.715 30.971 31.715 18.13 0 30.971-13.4558 30.971-31.715 0-18.2611-12.841-31.7149-30.971-31.7149zm0 13.9796c9.569 0 16.367 7.2517 16.367 17.7353 0 10.4837-6.798 17.7354-16.367 17.7354-9.57 0-16.368-7.2517-16.368-17.7354 0-10.4836 6.798-17.7353 16.368-17.7353z"/></g><path d="m244.756 34.5352c-18.13 0-30.971 13.4537-30.971 31.7149 0 18.2591 12.841 31.7149 30.971 31.7149 6.169 0 11.457-1.7926 15.947-4.718l2.602 3.5812h16.493l-9.274-13.1046c3.274-4.8501 5.203-10.6157 5.203-17.4735 0-18.2612-12.841-31.7149-30.971-31.7149zm0 13.9795c9.567 0 16.368 7.2517 16.368 17.7354 0 2.0098-.252 3.8877-.715 5.6357l-1.887-2.6656h-15.277l9.274 12.93c-2.265 1.1795-4.909 1.8353-7.763 1.8353-9.569 0-16.368-7.2517-16.368-17.7354s6.799-17.7354 16.368-17.7354z" fill="#fff"/></g></svg>